<svg preserveAspectRatio="none" overflow="visible" style="display: block;" width="90" height="90" viewBox="0 0 90 90" fill="none" xmlns="http://www.w3.org/2000/svg">
<g id="Emblema" clip-path="url(#clip0_0_4)">
<circle id="C&#195;&#173;rculo" cx="51.75" cy="49.05" r="38.25" fill="#005747"/>
<path id="Garza" d="M61.0811 11.7C49.6698 12.5667 48.7189 19.5 55.3755 22.9667L66.7868 23.8333L55.3755 27.3C47.7679 34.2333 62.983 40.3 58.2283 50.7C54.4245 59.3667 39.2094 65.4333 36.3566 74.9667L29.7 81.9L43.0132 80.1667C44.9151 70.6333 64.8849 66.3 70.5906 51.5667C76.2962 38.5667 60.1302 31.6333 60.1302 27.3L80.1 22.1L62.983 18.6333C62.0321 16.0333 65.8359 15.1667 68.6887 16.0333L71.5415 13.4333L61.0811 11.7Z" fill="white"/>
<path id="Hoja" d="M33.3543 19.7955C35.3315 23.8979 35.7539 27.5428 35.2322 30.9371C34.7072 34.3528 33.2216 37.5503 31.3279 40.7389C30.3817 42.3322 29.3389 43.9148 28.2693 45.5182C27.202 47.1181 26.1056 48.7407 25.0662 50.398C23.2098 53.3581 21.5138 56.4593 20.4314 59.8287C18.3495 56.5861 15.3468 53.3291 12.5144 49.9742C9.33467 46.2079 6.34243 42.2864 4.85234 37.9605L4.84453 37.9371L4.83378 37.9146C3.10061 34.033 2.9264 30.6702 3.70488 27.5992C4.48792 24.5107 6.24538 21.6742 8.45293 18.8727C10.6739 16.0541 13.2742 13.3583 15.7723 10.4527C18.0264 7.83085 20.1597 5.0742 21.7019 2.03671L33.3543 19.7955Z" fill="#81B55A" stroke="#005747" stroke-width="1.125"/>
<path id="Nervadura" d="M23.4 9.9C11.1429 25.7836 10.2674 42.5836 20.7735 60.3" stroke="#005747" stroke-width="1.73077"/>
</g>
<defs>
<clipPath id="clip0_0_4">
<rect width="90" height="90" fill="white"/>
</clipPath>
</defs>
</svg>
